<?xml version="1.0" encoding="iso-8859-1"?>
<!-- Uploaded to: SVG Repo, www.svgrepo.com, Generator: SVG Repo Mixer Tools -->
<svg fill="#000000" height="800px" width="800px" version="1.1" id="Layer_1" xmlns="http://www.w3.org/2000/svg" xmlns:xlink="http://www.w3.org/1999/xlink" 
	 viewBox="0 0 512.001 512.001" xml:space="preserve">
<g>
	<g>
		<path d="M189.471,419.267v76.561h-18.923v-76.563h-16.173v84.65c0,4.467,3.621,8.087,8.087,8.087h35.096
			c4.466,0,8.087-3.62,8.087-8.087v-84.648H189.471z"/>
	</g>
</g>
<g>
	<g>
		<path d="M203.455,359.318v33.748c0,12.928-10.518,23.445-23.445,23.445c-8.059,0-15.459-4.065-19.794-10.873l-13.642,8.689
			c7.321,11.494,19.821,18.357,33.436,18.357c21.846,0,39.619-17.774,39.619-39.619v-33.748H203.455z"/>
	</g>
</g>
<g>
	<g>
		<path d="M346.704,419.267v76.561h-18.923v-76.563h-16.174v84.65c0,4.467,3.621,8.087,8.087,8.087h35.096
			c4.466,0,8.087-3.62,8.087-8.087v-84.648H346.704z"/>
	</g>
</g>
<g>
	<g>
		<path d="M360.687,347.462v45.604c0,12.928-10.518,23.445-23.445,23.445c-8.059,0-15.458-4.064-19.793-10.872l-13.642,8.687
			c7.32,11.495,19.819,18.358,33.435,18.358c21.845,0,39.617-17.774,39.619-39.619v-45.604H360.687z"/>
	</g>
</g>
<g>
	<g>
		<path d="M382.638,2.368c-3.158-3.156-8.279-3.158-11.436,0l-24.494,24.491c-3.317,3.314-5.143,7.722-5.142,12.413
			c0.001,4.688,1.825,9.095,5.143,12.414c3.315,3.312,7.72,5.135,12.406,5.135c4.687,0,9.093-1.823,12.412-5.138l11.112-11.117
			c5.102-5.102,7.911-11.885,7.911-19.1C390.549,14.251,387.74,7.47,382.638,2.368z M371.201,29.128l-11.11,11.114
			c-0.333,0.333-0.715,0.402-0.976,0.402c-0.261,0-0.643-0.069-0.971-0.398c-0.334-0.334-0.404-0.716-0.404-0.977
			c0-0.26,0.069-0.639,0.402-0.973l16.218-16.214C374.212,24.745,373.103,27.228,371.201,29.128z"/>
	</g>
</g>
<g>
	<g>
		<path d="M397.514,20.324h-16.369v16.173h16.369c12.712,0,24.692,6.205,32.044,16.602l13.204-9.34
			C432.383,29.084,415.468,20.324,397.514,20.324z"/>
	</g>
</g>
<g>
	<g>
		<path d="M392.943,122.871v164.854c0,35.018-28.489,63.508-63.509,63.508h-13.888c-4.466,0-8.087,3.62-8.087,8.087v33.748
			c0,12.928-10.517,23.445-23.444,23.445c-12.928,0-23.445-10.517-23.445-23.445V359.32c0-4.467-3.621-8.087-8.087-8.087h-94.169
			c-4.466,0-8.087,3.62-8.087,8.087v33.748c0,12.928-10.517,23.445-23.444,23.445c-12.928,0-23.445-10.517-23.445-23.445v-41.121
			c0-3.076-1.745-5.885-4.502-7.249c-21.609-10.686-35.572-33.05-35.572-56.974v-35.798c0-7.922,1.478-15.689,4.393-23.085
			c1.433-3.638,0.059-7.779-3.264-9.839c-5.207-3.226-8.314-8.783-8.314-14.866c0-9.649,7.85-17.499,17.499-17.499
			c5.422,0,10.456,2.473,13.809,6.787c2.4,3.089,6.671,4.016,10.135,2.201c9.136-4.785,18.977-7.211,29.25-7.211h188.773
			c4.466,0,8.087-3.62,8.087-8.087V75.769c0-0.046,0-0.098-0.001-0.15c0.047-19.36,14.486-36,33.623-38.727l-2.282-16.012
			c-27.087,3.86-47.514,27.432-47.514,54.832c0,0.049,0,0.102,0.001,0.156v96.372H126.773c-10.685,0-21.355,2.206-31.197,6.417
			c-6.061-5.266-13.795-8.195-21.999-8.195c-18.567,0-33.672,15.105-33.672,33.672c0,9.471,3.898,18.274,10.671,24.574
			c-2.315,7.522-3.486,15.307-3.486,23.215v35.798c0,28.328,15.574,54.9,40.074,69.06v36.283c0,21.846,17.773,39.619,39.619,39.619
			c21.845,0,39.617-17.772,39.617-39.619v-25.661h77.995v25.661c0,21.846,17.773,39.619,39.619,39.619
			c21.845,0,39.617-17.774,39.619-39.619v-25.661h5.801c43.937,0,79.682-35.745,79.682-79.681V122.871H392.943z"/>
	</g>
</g>
<g>
	<g>
		<path d="M452.354,68.138c-1.199-8.781-4.47-17.115-9.604-24.372c-1.516-2.142-3.977-3.417-6.602-3.417h-59.178
			c-4.466,0-8.087,3.62-8.087,8.087c0,1.667-0.872,3.167-2.333,4.012c-3.382,1.956-4.882,6.051-3.564,9.729
			c0.19,0.528,0.281,1.037,0.281,1.554c0,1.247-0.492,2.418-1.385,3.297c-2.049,2.014-2.873,4.965-2.168,7.75
			c0.706,2.786,2.837,4.988,5.598,5.784c10.216,2.947,17.352,12.437,17.352,23.08c0,5.397-1.754,10.5-5.074,14.756
			c-1.901,2.437-2.246,5.745-0.89,8.521c1.355,2.776,4.176,4.538,7.266,4.538h55.062c18.233,0,33.066-14.831,33.066-33.062
			C472.096,85.037,464.223,73.321,452.354,68.138z M439.029,115.283h-41.895c1.127-3.731,1.703-7.637,1.704-11.643
			c0-14.476-7.894-27.679-20.035-34.762c0.422-1.662,0.638-3.388,0.638-5.149c0-0.357-0.01-0.714-0.028-1.071
			c1.684-1.799,3.035-3.88,3.994-6.137h48.298c3.048,5.428,4.753,11.526,4.967,17.85c0.124,3.65,2.678,6.764,6.232,7.598
			c7.664,1.801,13.016,8.555,13.016,16.424C455.922,107.707,448.344,115.283,439.029,115.283z"/>
	</g>
</g>
<g>
	<g>
		<path d="M421.117,63.73c-3.097,0-5.605,2.506-5.605,5.606c0,3.096,2.509,5.604,5.605,5.604c3.095,0,5.604-2.508,5.604-5.604
			C426.72,66.236,424.211,63.73,421.117,63.73z"/>
	</g>
</g>
<g>
	<g>
		<path d="M459.652,70.633h-4.897c-4.466,0-8.087,3.62-8.087,8.087s3.621,8.087,8.087,8.087h4.897c4.466,0,8.087-3.62,8.087-8.087
			S464.118,70.633,459.652,70.633z"/>
	</g>
</g>
<g>
	<g>
		<path d="M136.244,419.267v76.561h-18.923v-76.552h-16.174v84.639c0,4.467,3.621,8.087,8.087,8.087h35.096
			c4.466,0,8.087-3.62,8.087-8.087v-84.648H136.244z"/>
	</g>
</g>
<g>
	<g>
		<path d="M293.476,419.267v76.561h-18.923v-76.552h-16.173v84.639c0,4.467,3.621,8.087,8.087,8.087h35.096
			c4.466,0,8.087-3.62,8.087-8.087v-84.648H293.476z"/>
	</g>
</g>
</svg>